<?xml version="1.0" encoding="UTF-8"?>
<svg enable-background="new 0 0 512 512" version="1.1" viewBox="0 0 512 512" xml:space="preserve" xmlns="http://www.w3.org/2000/svg">
<g fill="#F5F5F5">
	<rect y="118.15" width="512" height="39.38"/>
	<path d="m485.26 39.385h-458.53c-9.708 11.388-17.179 24.741-21.723 39.385h501.97c-4.544-14.644-12.015-27.997-21.723-39.385z"/>
	<rect y="196.92" width="512" height="39.38"/>
	<rect y="275.69" width="512" height="39.38"/>
	<rect y="354.46" width="512" height="39.38"/>
	<path d="m506.99 433.23h-501.97c4.543 14.644 12.015 27.996 21.723 39.384h458.53c9.709-11.388 17.18-24.74 21.724-39.384z"/>
</g>
<g fill="#FF4B55">
	<path d="M400,0H112C77.852,0,47.279,15.287,26.736,39.385h458.527C464.721,15.287,434.148,0,400,0z"/>
	<rect y="157.54" width="512" height="39.38"/>
	<path d="M512,112c0-11.571-1.755-22.731-5.013-33.23H5.013C1.755,89.269,0,100.429,0,112v6.154h512V112z"/>
	<rect y="236.31" width="512" height="39.38"/>
	<path d="M512,400v-6.154H0V400c0,11.571,1.755,22.731,5.013,33.231h501.974   C510.245,422.731,512,411.571,512,400z"/>
	<path d="m485.26 472.62h-458.53c20.543 24.098 51.116 39.385 85.264 39.385h288c34.148 0 64.721-15.287 85.264-39.385z"/>
	<rect y="315.08" width="512" height="39.38"/>
</g>
<path d="M275.692,0H112C50.144,0,0,50.144,0,112v163.692h275.692V0z" fill="#41479B"/>
<g fill="#F5F5F5">
	<path d="m29.745 43.063c-0.262 0.829 0.681 1.515 1.389 1.009l5.463-3.904 5.463 3.904c0.707 0.506 1.651-0.18 1.389-1.009l-2.025-6.402 5.402-3.989c0.699-0.517 0.339-1.626-0.531-1.633l-6.714-0.052-1.146-3.436c-2.878 2.509-5.623 5.165-8.23 7.952l1.567 1.158-2.027 6.402z"/>
	<path d="m37.455 77.755l2.124 6.37 6.714 0.052c0.869 7e-3 1.23 1.116 0.531 1.633l-5.402 3.989 2.025 6.402c0.262 0.829-0.681 1.514-1.389 1.009l-5.463-3.905-5.463 3.905c-0.707 0.506-1.651-0.18-1.389-1.009l2.025-6.402-5.402-3.989c-0.699-0.516-0.339-1.626 0.53-1.633l6.714-0.052 2.124-6.37c0.279-0.825 1.446-0.825 1.721 0z"/>
	<path d="m37.455 136.69l2.124 6.37 6.714 0.052c0.869 7e-3 1.23 1.116 0.531 1.633l-5.402 3.989 2.025 6.402c0.262 0.829-0.681 1.514-1.389 1.009l-5.463-3.904-5.463 3.904c-0.707 0.505-1.651-0.18-1.389-1.009l2.025-6.402-5.402-3.989c-0.699-0.516-0.339-1.626 0.53-1.633l6.714-0.052 2.124-6.37c0.279-0.825 1.446-0.825 1.721 0z"/>
	<path d="m37.455 190.83l2.124 6.37 6.714 0.052c0.869 7e-3 1.23 1.116 0.531 1.633l-5.402 3.989 2.025 6.402c0.262 0.829-0.681 1.514-1.389 1.009l-5.463-3.905-5.463 3.905c-0.707 0.505-1.651-0.18-1.389-1.009l2.025-6.402-5.402-3.989c-0.699-0.516-0.339-1.626 0.53-1.633l6.714-0.052 2.124-6.37c0.279-0.825 1.446-0.825 1.721 0z"/>
	<path d="m37.455 240.11l2.124 6.37 6.714 0.052c0.869 7e-3 1.23 1.116 0.531 1.633l-5.402 3.989 2.025 6.402c0.262 0.829-0.681 1.514-1.389 1.009l-5.463-3.904-5.463 3.904c-0.707 0.505-1.651-0.18-1.389-1.009l2.025-6.402-5.402-3.989c-0.699-0.516-0.339-1.626 0.53-1.633l6.714-0.052 2.124-6.37c0.279-0.825 1.446-0.825 1.721 0z"/>
	<path d="m63.318 49.781l2.124 6.37 6.714 0.052c0.869 7e-3 1.23 1.116 0.531 1.632l-5.402 3.989 2.025 6.402c0.262 0.829-0.681 1.515-1.389 1.009l-5.461-3.905-5.463 3.905c-0.707 0.506-1.651-0.18-1.389-1.009l2.025-6.402-5.401-3.989c-0.699-0.516-0.339-1.626 0.53-1.632l6.714-0.052 2.124-6.37c0.276-0.825 1.443-0.825 1.718 0z"/>
	<path d="m63.318 108.71l2.124 6.37 6.714 0.052c0.869 7e-3 1.23 1.116 0.531 1.633l-5.402 3.989 2.025 6.402c0.262 0.829-0.681 1.515-1.389 1.009l-5.463-3.905-5.463 3.905c-0.707 0.506-1.651-0.18-1.389-1.009l2.025-6.402-5.401-3.989c-0.699-0.516-0.339-1.626 0.53-1.633l6.714-0.052 2.124-6.37c0.278-0.825 1.445-0.825 1.72 0z"/>
	<path d="m63.318 164.7l2.124 6.37 6.714 0.052c0.869 7e-3 1.23 1.116 0.531 1.633l-5.402 3.989 2.025 6.402c0.262 0.829-0.681 1.514-1.389 1.009l-5.463-3.905-5.463 3.905c-0.707 0.506-1.651-0.18-1.389-1.009l2.025-6.402-5.401-3.989c-0.699-0.516-0.339-1.626 0.53-1.633l6.714-0.052 2.124-6.37c0.278-0.824 1.445-0.824 1.72 0z"/>
	<path d="m63.318 214.99l2.124 6.37 6.714 0.052c0.869 7e-3 1.23 1.116 0.531 1.633l-5.402 3.989 2.025 6.402c0.262 0.829-0.681 1.515-1.389 1.009l-5.463-3.904-5.463 3.904c-0.707 0.506-1.651-0.18-1.389-1.009l2.025-6.402-5.401-3.989c-0.699-0.516-0.339-1.626 0.53-1.633l6.714-0.052 2.124-6.37c0.278-0.825 1.445-0.825 1.72 0z"/>
	<path d="m89.181 24.618l2.124 6.37 6.714 0.052c0.869 7e-3 1.23 1.116 0.531 1.632l-5.402 3.989 2.025 6.402c0.262 0.829-0.681 1.514-1.389 1.009l-5.463-3.905-5.463 3.905c-0.707 0.506-1.651-0.18-1.389-1.009l2.025-6.402-5.401-3.989c-0.699-0.516-0.339-1.626 0.53-1.632l6.714-0.052 2.124-6.37c0.278-0.824 1.445-0.824 1.72 0z"/>
	<path d="m89.181 77.755l2.124 6.37 6.714 0.052c0.869 7e-3 1.23 1.116 0.531 1.633l-5.402 3.989 2.025 6.402c0.262 0.829-0.681 1.514-1.389 1.009l-5.463-3.905-5.463 3.905c-0.707 0.506-1.651-0.18-1.389-1.009l2.025-6.402-5.401-3.989c-0.699-0.516-0.339-1.626 0.53-1.633l6.714-0.052 2.124-6.37c0.278-0.825 1.445-0.825 1.72 0z"/>
	<path d="m89.181 136.69l2.124 6.37 6.714 0.052c0.869 7e-3 1.23 1.116 0.531 1.633l-5.402 3.989 2.025 6.402c0.262 0.829-0.681 1.514-1.389 1.009l-5.463-3.904-5.463 3.904c-0.707 0.505-1.651-0.18-1.389-1.009l2.025-6.402-5.401-3.989c-0.699-0.516-0.339-1.626 0.53-1.633l6.714-0.052 2.124-6.37c0.278-0.825 1.445-0.825 1.72 0z"/>
	<path d="m89.181 190.83l2.124 6.37 6.714 0.052c0.869 7e-3 1.23 1.116 0.531 1.633l-5.402 3.989 2.025 6.402c0.262 0.829-0.681 1.514-1.389 1.009l-5.463-3.905-5.463 3.905c-0.707 0.505-1.651-0.18-1.389-1.009l2.025-6.402-5.401-3.989c-0.699-0.516-0.339-1.626 0.53-1.633l6.714-0.052 2.124-6.37c0.278-0.825 1.445-0.825 1.72 0z"/>
	<path d="m89.181 240.11l2.124 6.37 6.714 0.052c0.869 7e-3 1.23 1.116 0.531 1.633l-5.402 3.989 2.025 6.402c0.262 0.829-0.681 1.514-1.389 1.009l-5.463-3.904-5.463 3.904c-0.707 0.505-1.651-0.18-1.389-1.009l2.025-6.402-5.401-3.989c-0.699-0.516-0.339-1.626 0.53-1.633l6.714-0.052 2.124-6.37c0.278-0.825 1.445-0.825 1.72 0z"/>
	<path d="m115.04 49.781l2.124 6.37 6.714 0.052c0.869 7e-3 1.23 1.116 0.53 1.632l-5.401 3.989 2.025 6.402c0.262 0.829-0.681 1.515-1.389 1.009l-5.463-3.905-5.463 3.905c-0.707 0.506-1.651-0.18-1.389-1.009l2.025-6.402-5.402-3.989c-0.699-0.516-0.339-1.626 0.531-1.632l6.714-0.052 2.124-6.37c0.279-0.825 1.445-0.825 1.72 0z"/>
	<path d="m115.04 108.71l2.124 6.37 6.714 0.052c0.869 7e-3 1.23 1.116 0.53 1.633l-5.401 3.989 2.025 6.402c0.262 0.829-0.681 1.515-1.389 1.009l-5.463-3.905-5.463 3.905c-0.707 0.506-1.651-0.18-1.389-1.009l2.025-6.402-5.402-3.989c-0.699-0.516-0.339-1.626 0.531-1.633l6.714-0.052 2.124-6.37c0.279-0.825 1.445-0.825 1.72 0z"/>
	<path d="m115.04 164.7l2.124 6.37 6.714 0.052c0.869 7e-3 1.23 1.116 0.53 1.633l-5.401 3.989 2.025 6.402c0.262 0.829-0.681 1.514-1.389 1.009l-5.463-3.905-5.463 3.905c-0.707 0.506-1.651-0.18-1.389-1.009l2.025-6.402-5.402-3.989c-0.699-0.516-0.339-1.626 0.531-1.633l6.714-0.052 2.124-6.37c0.279-0.824 1.445-0.824 1.72 0z"/>
	<path d="m115.04 214.99l2.124 6.37 6.714 0.052c0.869 7e-3 1.23 1.116 0.53 1.633l-5.401 3.989 2.025 6.402c0.262 0.829-0.681 1.515-1.389 1.009l-5.463-3.904-5.463 3.904c-0.707 0.506-1.651-0.18-1.389-1.009l2.025-6.402-5.402-3.989c-0.699-0.516-0.339-1.626 0.531-1.633l6.714-0.052 2.124-6.37c0.279-0.825 1.445-0.825 1.72 0z"/>
	<path d="m140.91 24.618l2.124 6.37 6.714 0.052c0.869 7e-3 1.23 1.116 0.53 1.632l-5.401 3.989 2.025 6.402c0.262 0.829-0.681 1.514-1.389 1.009l-5.463-3.905-5.463 3.905c-0.707 0.506-1.651-0.18-1.389-1.009l2.025-6.402-5.401-3.989c-0.699-0.516-0.339-1.626 0.531-1.632l6.714-0.052 2.124-6.37c0.278-0.824 1.444-0.824 1.719 0z"/>
	<path d="m140.91 77.755l2.124 6.37 6.714 0.052c0.869 7e-3 1.23 1.116 0.53 1.633l-5.401 3.989 2.026 6.401c0.262 0.829-0.681 1.514-1.389 1.009l-5.463-3.905-5.463 3.905c-0.707 0.506-1.651-0.18-1.389-1.009l2.025-6.402-5.401-3.989c-0.699-0.516-0.339-1.626 0.531-1.633l6.714-0.052 2.124-6.37c0.277-0.824 1.443-0.824 1.718 1e-3z"/>
	<path d="m140.91 136.69l2.124 6.37 6.714 0.052c0.869 7e-3 1.23 1.116 0.53 1.633l-5.401 3.989 2.025 6.402c0.262 0.829-0.681 1.514-1.389 1.009l-5.463-3.904-5.463 3.904c-0.707 0.505-1.651-0.18-1.389-1.009l2.025-6.402-5.401-3.989c-0.699-0.516-0.339-1.626 0.531-1.633l6.714-0.052 2.124-6.37c0.278-0.825 1.444-0.825 1.719 0z"/>
	<path d="m140.91 190.83l2.124 6.37 6.714 0.052c0.869 7e-3 1.23 1.116 0.53 1.633l-5.401 3.989 2.025 6.402c0.262 0.829-0.681 1.514-1.389 1.009l-5.463-3.905-5.463 3.905c-0.707 0.505-1.651-0.18-1.389-1.009l2.025-6.402-5.401-3.989c-0.699-0.516-0.339-1.626 0.531-1.633l6.714-0.052 2.124-6.37c0.278-0.825 1.444-0.825 1.719 0z"/>
	<path d="m140.91 240.11l2.124 6.37 6.714 0.052c0.869 7e-3 1.23 1.116 0.53 1.633l-5.401 3.989 2.025 6.402c0.262 0.829-0.681 1.514-1.389 1.009l-5.463-3.904-5.463 3.904c-0.707 0.505-1.651-0.18-1.389-1.009l2.025-6.402-5.401-3.989c-0.699-0.516-0.339-1.626 0.531-1.633l6.714-0.052 2.124-6.37c0.278-0.825 1.444-0.825 1.719 0z"/>
	<path d="m166.77 49.781l2.124 6.37 6.714 0.052c0.869 7e-3 1.23 1.116 0.53 1.632l-5.402 3.989 2.025 6.402c0.262 0.829-0.682 1.515-1.389 1.009l-5.463-3.905-5.463 3.905c-0.707 0.506-1.651-0.18-1.389-1.009l2.025-6.402-5.401-3.989c-0.699-0.516-0.339-1.626 0.53-1.632l6.714-0.052 2.124-6.37c0.28-0.825 1.446-0.825 1.721 0z"/>
	<path d="m166.77 108.71l2.124 6.37 6.714 0.052c0.869 7e-3 1.23 1.116 0.53 1.633l-5.402 3.989 2.025 6.402c0.262 0.829-0.682 1.515-1.389 1.009l-5.463-3.905-5.463 3.905c-0.707 0.506-1.651-0.18-1.389-1.009l2.025-6.402-5.401-3.989c-0.699-0.516-0.339-1.626 0.53-1.633l6.714-0.052 2.124-6.37c0.28-0.825 1.446-0.825 1.721 0z"/>
	<path d="m166.77 164.7l2.124 6.37 6.714 0.052c0.869 7e-3 1.23 1.116 0.53 1.633l-5.402 3.989 2.025 6.402c0.262 0.829-0.682 1.514-1.389 1.009l-5.463-3.905-5.463 3.905c-0.707 0.506-1.651-0.18-1.389-1.009l2.025-6.402-5.401-3.989c-0.699-0.516-0.339-1.626 0.53-1.633l6.714-0.052 2.124-6.37c0.28-0.824 1.446-0.824 1.721 0z"/>
	<path d="m166.77 214.99l2.124 6.37 6.714 0.052c0.869 7e-3 1.23 1.116 0.53 1.633l-5.402 3.989 2.025 6.402c0.262 0.829-0.682 1.515-1.389 1.009l-5.463-3.904-5.463 3.904c-0.707 0.506-1.651-0.18-1.389-1.009l2.025-6.402-5.401-3.989c-0.699-0.516-0.339-1.626 0.53-1.633l6.714-0.052 2.124-6.37c0.28-0.825 1.446-0.825 1.721 0z"/>
	<path d="m192.63 24.618l2.124 6.37 6.714 0.052c0.869 7e-3 1.23 1.116 0.53 1.632l-5.402 3.989 2.025 6.402c0.262 0.829-0.682 1.514-1.389 1.009l-5.463-3.905-5.463 3.905c-0.707 0.506-1.651-0.18-1.389-1.009l2.025-6.402-5.402-3.989c-0.699-0.516-0.339-1.626 0.531-1.632l6.714-0.052 2.124-6.37c0.28-0.824 1.446-0.824 1.721 0z"/>
	<path d="m192.63 77.755l2.124 6.37 6.714 0.052c0.869 7e-3 1.23 1.116 0.53 1.633l-5.402 3.989 2.025 6.402c0.262 0.829-0.682 1.514-1.389 1.009l-5.463-3.905-5.463 3.905c-0.707 0.506-1.651-0.18-1.389-1.009l2.025-6.402-5.402-3.989c-0.699-0.516-0.339-1.626 0.531-1.633l6.714-0.052 2.124-6.37c0.28-0.825 1.446-0.825 1.721 0z"/>
	<path d="m192.63 136.69l2.124 6.37 6.714 0.052c0.869 7e-3 1.23 1.116 0.53 1.633l-5.402 3.989 2.025 6.402c0.262 0.829-0.682 1.514-1.389 1.009l-5.463-3.904-5.463 3.904c-0.707 0.505-1.651-0.18-1.389-1.009l2.025-6.402-5.402-3.989c-0.699-0.516-0.339-1.626 0.531-1.633l6.714-0.052 2.124-6.37c0.28-0.825 1.446-0.825 1.721 0z"/>
	<path d="m192.63 190.83l2.124 6.37 6.714 0.052c0.869 7e-3 1.23 1.116 0.53 1.633l-5.402 3.989 2.025 6.402c0.262 0.829-0.682 1.514-1.389 1.009l-5.463-3.905-5.463 3.905c-0.707 0.505-1.651-0.18-1.389-1.009l2.025-6.402-5.402-3.989c-0.699-0.516-0.339-1.626 0.531-1.633l6.714-0.052 2.124-6.37c0.28-0.825 1.446-0.825 1.721 0z"/>
	<path d="m192.63 240.11l2.124 6.37 6.714 0.052c0.869 7e-3 1.23 1.116 0.53 1.633l-5.402 3.989 2.025 6.402c0.262 0.829-0.682 1.514-1.389 1.009l-5.463-3.904-5.463 3.904c-0.707 0.505-1.651-0.18-1.389-1.009l2.025-6.402-5.402-3.989c-0.699-0.516-0.339-1.626 0.531-1.633l6.714-0.052 2.124-6.37c0.28-0.825 1.446-0.825 1.721 0z"/>
	<path d="m218.5 49.781l2.124 6.37 6.715 0.052c0.869 7e-3 1.23 1.116 0.53 1.632l-5.402 3.989 2.025 6.402c0.262 0.829-0.682 1.515-1.389 1.009l-5.463-3.905-5.463 3.905c-0.707 0.506-1.651-0.18-1.389-1.009l2.025-6.402-5.402-3.989c-0.699-0.516-0.339-1.626 0.53-1.632l6.715-0.052 2.124-6.37c0.279-0.825 1.445-0.825 1.72 0z"/>
	<path d="m218.5 108.71l2.124 6.37 6.715 0.052c0.869 7e-3 1.23 1.116 0.53 1.633l-5.402 3.989 2.025 6.402c0.262 0.829-0.682 1.515-1.389 1.009l-5.463-3.905-5.463 3.905c-0.707 0.506-1.651-0.18-1.389-1.009l2.025-6.402-5.402-3.989c-0.699-0.516-0.339-1.626 0.53-1.633l6.715-0.052 2.124-6.37c0.279-0.825 1.445-0.825 1.72 0z"/>
	<path d="m218.5 164.7l2.124 6.37 6.715 0.052c0.869 7e-3 1.23 1.116 0.53 1.633l-5.402 3.989 2.025 6.402c0.262 0.829-0.682 1.514-1.389 1.009l-5.463-3.905-5.463 3.905c-0.707 0.506-1.651-0.18-1.389-1.009l2.025-6.402-5.402-3.989c-0.699-0.516-0.339-1.626 0.53-1.633l6.715-0.052 2.124-6.37c0.279-0.824 1.445-0.824 1.72 0z"/>
	<path d="m218.5 214.99l2.124 6.37 6.715 0.052c0.869 7e-3 1.23 1.116 0.53 1.633l-5.402 3.989 2.025 6.402c0.262 0.829-0.682 1.515-1.389 1.009l-5.463-3.904-5.463 3.904c-0.707 0.506-1.651-0.18-1.389-1.009l2.025-6.402-5.402-3.989c-0.699-0.516-0.339-1.626 0.53-1.633l6.715-0.052 2.124-6.37c0.279-0.825 1.445-0.825 1.72 0z"/>
	<path d="m244.36 24.618l2.124 6.37 6.714 0.052c0.869 7e-3 1.23 1.116 0.531 1.632l-5.402 3.989 2.025 6.402c0.262 0.829-0.682 1.514-1.389 1.009l-5.463-3.905-5.463 3.905c-0.707 0.506-1.651-0.18-1.389-1.009l2.025-6.402-5.402-3.989c-0.699-0.516-0.339-1.626 0.53-1.632l6.714-0.052 2.124-6.37c0.28-0.824 1.446-0.824 1.721 0z"/>
	<path d="m244.36 77.755l2.124 6.37 6.714 0.052c0.869 7e-3 1.23 1.116 0.531 1.633l-5.402 3.989 2.025 6.402c0.262 0.829-0.682 1.514-1.389 1.009l-5.463-3.905-5.463 3.905c-0.707 0.506-1.651-0.18-1.389-1.009l2.025-6.402-5.402-3.989c-0.699-0.516-0.339-1.626 0.53-1.633l6.714-0.052 2.124-6.37c0.28-0.825 1.446-0.825 1.721 0z"/>
	<path d="m244.36 136.69l2.124 6.37 6.714 0.052c0.869 7e-3 1.23 1.116 0.531 1.633l-5.402 3.989 2.025 6.402c0.262 0.829-0.682 1.514-1.389 1.009l-5.463-3.904-5.463 3.904c-0.707 0.505-1.651-0.18-1.389-1.009l2.025-6.402-5.402-3.989c-0.699-0.516-0.339-1.626 0.53-1.633l6.714-0.052 2.124-6.37c0.28-0.825 1.446-0.825 1.721 0z"/>
	<path d="m244.36 190.83l2.124 6.37 6.714 0.052c0.869 7e-3 1.23 1.116 0.531 1.633l-5.402 3.989 2.025 6.402c0.262 0.829-0.682 1.514-1.389 1.009l-5.463-3.905-5.463 3.905c-0.707 0.505-1.651-0.18-1.389-1.009l2.025-6.402-5.402-3.989c-0.699-0.516-0.339-1.626 0.53-1.633l6.714-0.052 2.124-6.37c0.28-0.825 1.446-0.825 1.721 0z"/>
	<path d="m244.36 240.11l2.124 6.37 6.714 0.052c0.869 7e-3 1.23 1.116 0.531 1.633l-5.402 3.989 2.025 6.402c0.262 0.829-0.682 1.514-1.389 1.009l-5.463-3.904-5.463 3.904c-0.707 0.505-1.651-0.18-1.389-1.009l2.025-6.402-5.402-3.989c-0.699-0.516-0.339-1.626 0.53-1.633l6.714-0.052 2.124-6.37c0.28-0.825 1.446-0.825 1.721 0z"/>
</g>
</svg>
