<?xml version="1.0" encoding="UTF-8"?>
<!DOCTYPE svg  PUBLIC '-//W3C//DTD SVG 1.1//EN'  'http://www.w3.org/Graphics/SVG/1.1/DTD/svg11.dtd'>
<svg enable-background="new 0 0 48.997 48.998" version="1.1" viewBox="0 0 48.997 48.998" xml:space="preserve" xmlns="http://www.w3.org/2000/svg">
	<path d="m45.961 18.702c-0.033-0.038-0.061-0.075-0.1-0.112l-1.717-1.657c1.424-0.323 2.957-1.516 2.957-2.74 0-1.426-1.979-1.932-3.668-1.932-1.766 0-1.971 1.21-1.992 2.065l-4.43-4.271c-0.9-0.891-2.607-1.592-3.883-1.592h-17.26c-1.275 0-2.981 0.701-3.882 1.592l-4.429 4.271c-0.023-0.855-0.228-2.065-1.992-2.065-1.691 0-3.669 0.506-3.669 1.932 0 1.224 1.534 2.417 2.958 2.74l-1.717 1.657c-0.039 0.037-0.066 0.074-0.1 0.112-1.837 1.57-3.037 4.482-3.037 6.595v6.279c0 1.524 0.601 2.907 1.572 3.938v2.435c0 1.424 1.192 2.585 2.658 2.585h3.214c1.466 0 2.657-1.159 2.657-2.585v-0.623h28.795v0.623c0 1.426 1.19 2.585 2.658 2.585h3.213c1.467 0 2.657-1.161 2.657-2.585v-2.435c0.972-1.031 1.572-2.414 1.572-3.938v-6.279c2e-3 -2.113-1.198-5.025-3.035-6.595zm-32.348-6.749c0.623-0.519 1.712-0.913 2.255-0.913h17.262c0.543 0 1.632 0.394 2.255 0.913l5.809 5.63h-33.389l5.808-5.63zm-11.62 12.394c0-1.546 1.21-2.801 2.704-2.801 1.493 0 6.372 2.864 6.372 4.41s-4.879 1.188-6.372 1.188c-1.494 0-2.704-1.25-2.704-2.797zm8.109 10.226h-1.03l-3.055 5e-3c-0.848-0.264-1.446-0.572-1.869-0.903-0.214-0.167-0.378-0.341-0.506-0.514-0.129-0.175-0.223-0.347-0.284-0.519-0.38-1.074 0.405-2.061 0.405-2.061h5.214l3.476 3.99-2.351 2e-3zm21.894 2e-3h-14.994c-1.563 0-2.832-1.269-2.832-2.831h20.658c0 1.564-1.269 2.831-2.832 2.831zm0.658-4.763h-16.31c-1.7 0-3.08-2.096-3.08-4.681h22.47c0 2.586-1.38 4.681-3.08 4.681zm12.987 2.832c-0.062 0.172-0.156 0.344-0.285 0.518-0.127 0.173-0.291 0.347-0.506 0.514-0.422 0.331-1.021 0.641-1.869 0.903l-3.055-5e-3h-3.383l3.478-3.99h5.213c0-1e-3 0.786 0.984 0.407 2.06zm-1.34-5.5c-1.492 0-6.371 0.356-6.371-1.188s4.879-4.41 6.371-4.41c1.494 0 2.704 1.255 2.704 2.801 0 1.545-1.21 2.797-2.704 2.797z"/>
</svg>
