<?xml version="1.0" encoding="UTF-8"?>
<svg enable-background="new 0 0 25.289 25.289" version="1.1" viewBox="0 0 25.289 25.289" xml:space="preserve" xmlns="http://www.w3.org/2000/svg">
	<path d="m25.287 5.168c0.053-0.948-1.138-1.348-1.396-1.989 0.177-0.183 0.373-1.325 0.323-1.683-0.049-0.346-0.829 0.445-0.967 0.287-0.157-0.183 0.109-0.971-0.18-1.377-0.147-0.207-0.483 1.327-0.737 1.442-0.183 0.082-0.502-0.351-0.828-0.95-0.533-0.979-0.239 1.129-0.188 1.531-1.413 0.216-2.298 1.153-2.696 2.369-0.438 1.337-1.661 4.313-3.911 4.454-2.703 0.17-5.718-2.358-7.14-3.814-0.757-0.773-1.31-2.999-2.636-2.827-0.599 0.078-1.07 0.924-1.771 1.106 0 0-3.6 0.889-3.115 1.856 0.286 0.569 1.859 1.316 3.06 1.82 0.053 0.021 0.082 0.081 0.065 0.135-0.017 0.056-0.072 0.089-0.128 0.08-1.03-0.183-2.054-0.222-1.03 0.657 0.253 0.217 1.202 0.675 2.092 1.082 0.053 0.023 0.08 0.084 0.06 0.139-0.019 0.055-0.076 0.087-0.133 0.073-0.721-0.175-1.376-0.251-1.336 0.064 0.089 0.71 2.828 2.794 2.828 2.794-0.347 0.426 1.065 1.955 1.29 2.147-0.324-0.108-0.673 0.016-0.214 0.431 0.676 0.614 0.826 1.604 1.404 2.178 1.699 1.689 4.248 0.415 5.561 3.267 0.068 0.148 0.367 0.747 0.624 1.27 0.077 0.156 0.077 0.339 1e-3 0.495-0.077 0.156-0.222 0.269-0.392 0.304l-1.699 0.352c-0.247 0.051-0.421 0.28-0.397 0.537 0.026 0.274 0.27 0.478 0.545 0.451l1.68-0.157c0.056-5e-3 0.11 0.024 0.137 0.074s0.02 0.111-0.017 0.155l-0.134 0.161c-0.176 0.212-0.147 0.527 0.065 0.704 0.093 0.077 0.206 0.115 0.319 0.115 0.144 0 0.285-0.062 0.385-0.181l0.707-0.851c0.134-0.161 0.346-0.234 0.551-0.19l2.476 0.532c0.246 0.053 0.498-0.087 0.58-0.331 0.088-0.262-0.054-0.546-0.316-0.634l-2.234-0.747c-0.203-0.067-0.351-0.246-0.379-0.458-0.054-0.398-0.124-0.9-0.173-1.284-0.033-0.258 0.125-0.502 0.373-0.577 1.134-0.34 1.741-1.725 2.477-2.658 0.337-0.43 0.813-0.722 1.348-0.831 2.928-0.597 3.921-3.638 4.229-6.854 0.182-1.898-0.71-2.667-1.182-4.08 0.593-0.178 1.243-1.065 2.149-0.589zm-3.222-1.057c-0.218 0-0.393-0.176-0.393-0.394 0-0.22 0.176-0.396 0.393-0.396 0.223 0 0.394 0.176 0.394 0.396 0 0.218-0.172 0.394-0.394 0.394z"/>
</svg>
