<?xml version="1.0" encoding="UTF-8"?>
<svg enable-background="new 0 0 512 512" version="1.1" viewBox="0 0 512 512" xml:space="preserve" xmlns="http://www.w3.org/2000/svg">
		<path d="m466.21 67.125l-42.667-42.667c-4.167-4.167-10.917-4.167-15.083 0-4.167 4.167-4.167 10.917 0 15.083l35.125 35.125-35.125 35.125c-2 2-3.125 4.708-3.125 7.542v32c0 23.532 19.136 42.667 42.667 42.667v181.33c0 5.885-4.781 10.667-10.667 10.667-5.885 0-10.667-4.781-10.667-10.667v-21.333c0-17.646-14.354-32-32-32h-10.666v-277.33c0-23.532-19.135-42.667-42.667-42.667h-213.33c-23.531 0-42.667 19.135-42.667 42.667v384c-23.531 0-42.667 19.135-42.667 42.667v32c0 5.896 4.771 10.667 10.667 10.667h362.67c5.896 0 10.667-4.771 10.667-10.667v-32c0-23.531-19.135-42.667-42.667-42.667v-85.333h10.667c5.885 0 10.667 4.781 10.667 10.667v21.333c0 17.646 14.354 32 32 32s32-14.354 32-32v-298.67c-1e-3 -2.834-1.126-5.542-3.126-7.542zm-124.88 114.41c0 5.896-4.771 10.667-10.667 10.667h-192c-5.896 0-10.667-4.771-10.667-10.667v-128.2c0-5.896 4.771-10.667 10.667-10.667h192c5.896 0 10.667 4.771 10.667 10.667v128.2z"/>
</svg>
