<?xml version="1.0" encoding="UTF-8"?>
<!DOCTYPE svg  PUBLIC '-//W3C//DTD SVG 1.1//EN'  'http://www.w3.org/Graphics/SVG/1.1/DTD/svg11.dtd'>
<svg enable-background="new 0 0 56.811 56.811" version="1.1" viewBox="0 0 56.811 56.811" xml:space="preserve" xmlns="http://www.w3.org/2000/svg">
	<path d="m36.266 25.296c0.106 0.036 0.215 0.053 0.321 0.053 0.417 0 0.806-0.262 0.947-0.679 0.313-0.918 1.314-1.411 2.232-1.1 1.962 0.664 4.103-0.389 4.768-2.352 0.178-0.522-0.102-1.091-0.625-1.269-0.525-0.177-1.091 0.103-1.269 0.626-0.312 0.919-1.313 1.412-2.232 1.1-1.959-0.661-4.102 0.39-4.768 2.352-0.177 0.523 0.103 1.091 0.626 1.269z"/>
	<path d="m38.632 18.328c0.106 0.036 0.215 0.053 0.321 0.053 0.417 0 0.806-0.262 0.947-0.679 0.151-0.445 0.466-0.805 0.888-1.013s0.899-0.238 1.344-0.087c1.962 0.664 4.102-0.389 4.768-2.353 0.178-0.522-0.103-1.091-0.625-1.269-0.523-0.18-1.091 0.103-1.268 0.626-0.312 0.92-1.311 1.413-2.232 1.101-0.952-0.323-1.971-0.257-2.871 0.188-0.9 0.444-1.574 1.213-1.897 2.164-0.178 0.523 0.102 1.091 0.625 1.269z"/>
	<path d="m40.997 11.36c0.107 0.036 0.215 0.053 0.322 0.053 0.417 0 0.806-0.262 0.947-0.679 0.23-0.678 0.971-1.043 1.648-0.813 0.835 0.283 1.73 0.225 2.521-0.164 0.79-0.39 1.381-1.064 1.665-1.899 0.178-0.522-0.102-1.091-0.625-1.269-0.525-0.179-1.091 0.103-1.269 0.626-0.112 0.329-0.345 0.595-0.656 0.748s-0.663 0.176-0.993 0.063c-1.722-0.581-3.601 0.343-4.185 2.064-0.178 0.524 0.102 1.092 0.625 1.27z"/>
	<path d="m47.668 25.018c1.989-6.46 3.079-12.79 3.235-18.817 0.045-1.728-0.708-3.691-1.872-4.886-1.389-1.425-3.278-1.716-5.142-0.756-2.987 1.541-5.123 6.074-6.839 9.718-0.099 0.21-0.196 0.415-0.292 0.618-0.379-1.743-1.531-3.234-3.169-4.012-0.386-1.856-1.858-3.31-3.708-3.687-0.02-0.104-0.045-0.206-0.076-0.309-0.381-1.302-1.531-2.282-2.859-2.44-0.768-0.094-1.496 0.068-2.126 0.436-0.54-0.3-1.146-0.46-1.768-0.46-1.739 0-3.2 1.213-3.581 2.836-1.901 0.518-3.295 2.263-3.31 4.291-2.169 0.56-3.749 2.52-3.749 4.851 0 0.618 0.116 1.23 0.339 1.807-0.563 0.695-0.875 1.565-0.875 2.478 0 0.548 0.113 1.076 0.326 1.564-0.999-1.09-2.405-1.981-3.984-1.923-0.552 0.018-0.986 0.479-0.969 1.031 0.017 0.541 0.461 0.969 0.999 0.969 0.034 1e-3 0.065-2e-3 0.097-2e-3 0.937 0 1.808 0.62 2.442 1.34-1.586 0.457-3.498 1.201-4.39 2.883-0.536 1.011-0.599 2.252-0.246 3.672-0.178 0.291-0.265 0.632-0.246 0.997l1.702 24.188c0.155 3.033 2.655 5.408 5.691 5.408h28.071c3.036 0 5.536-2.375 5.69-5.39l1.746-25.046c0.019-0.358-0.112-0.714-0.359-0.974-0.203-0.219-0.485-0.345-0.778-0.385zm-10.093-11.262c0.396-0.739 0.828-1.655 1.285-2.626 1.503-3.192 3.563-7.563 5.946-8.793 1.08-0.556 2.003-0.436 2.793 0.374 0.892 0.914 1.331 2.422 1.305 3.438-0.153 5.912-1.233 12.134-3.211 18.494-0.065 0.209-0.209 0.631-0.414 1.21l-1.704 0.757c-0.037 0.017-0.073 0.035-0.108 0.057-0.482 0.289-1.039 0.432-1.596 0.438-0.557-6e-3 -1.113-0.149-1.595-0.438l-0.713-0.428c-0.803-0.481-1.722-0.736-2.658-0.736-0.253 0-0.504 0.022-0.752 0.059-0.693 0.089-1.369 0.315-1.973 0.678l-0.712 0.428c-0.389 0.233-0.83 0.347-1.277 0.396 0.022-0.075 0.047-0.149 0.069-0.224 0.277-0.944 0.576-1.875 0.888-2.798 0.114-0.338 0.233-0.673 0.353-1.008 0.261-0.734 0.534-1.46 0.816-2.179 0.121-0.307 0.237-0.618 0.362-0.922 0.872-2.133 1.835-4.198 2.896-6.177zm-11.554 11.831c-0.11 0.019-0.219 0.039-0.327 0.065-0.33 0.073-0.654 0.172-0.965 0.309l-0.192-0.878c0.288 0.024 0.575 0.048 0.844 0.048 1.744 0 3.148-0.519 4.762-1.667 0.508-0.362 0.958-0.636 1.386-0.863-0.092 0.261-0.183 0.521-0.272 0.783-0.064 0.188-0.133 0.373-0.195 0.562-0.294 0.89-0.574 1.787-0.835 2.692l-0.665-0.398c-0.803-0.481-1.722-0.736-2.658-0.736-0.242 0-0.481 0.023-0.719 0.057-0.054 6e-3 -0.109 0.018-0.164 0.026zm-1.589-13.516c-0.224 0.046-0.446-0.104-0.492-0.316-0.048-0.219 0.097-0.444 0.316-0.492l5.61-1.217c0.194 0 0.364 0.137 0.405 0.325 0.032 0.144-0.022 0.257-0.058 0.312-0.035 0.054-0.114 0.149-0.258 0.181l-5.523 1.207zm0.394 4.056c0.117-0.15 0.231-0.296 0.341-0.442 0.079-0.105 0.148-0.214 0.206-0.323 0.246-0.463 0.304-0.982 0.19-1.491l4.174-0.912c0.028 0.128 0.058 0.255 0.106 0.373 0.187 0.458 0.521 0.839 0.986 1.105 0.152 0.084 0.311 0.168 0.475 0.255 0.135 0.071 0.27 0.145 0.406 0.219 0.065 0.035 0.131 0.07 0.196 0.106 0.119 0.067 0.234 0.141 0.35 0.214 0.099 0.061 0.197 0.124 0.293 0.191 0.111 0.077 0.217 0.162 0.323 0.248 0.093 0.076 0.182 0.159 0.27 0.244 0.095 0.093 0.189 0.188 0.276 0.292 0.154 0.184 0.302 0.375 0.423 0.604-0.424 0.936-0.823 1.891-1.209 2.854-0.06 0.149-0.124 0.294-0.183 0.443-1.096 0.278-2.155 0.798-3.463 1.729-1.648 1.171-2.875 1.482-4.897 1.189l-0.607-2.779c-0.412-1.88 0.481-3.018 1.344-4.119zm-5.921 24.865c0.552 0 1 0.447 1 1s-0.448 1-1 1h-7c-0.552 0-1-0.447-1-1s0.448-1 1-1h7zm-7 4h9c0.552 0 1 0.447 1 1s-0.448 1-1 1h-9c-0.552 0-1-0.447-1-1s0.448-1 1-1zm2.687-29.812l0.655-0.54-0.425-0.733c-0.266-0.46-0.407-0.98-0.407-1.506 0-1.62 1.269-2.941 2.889-3.009l1.214-0.051-0.283-1.181c-0.048-0.198-0.072-0.393-0.072-0.578 0-1.288 1.006-2.373 2.29-2.471l0.924-0.07v-0.995c0.029-0.899 0.77-1.622 1.677-1.622 0.522 0 0.896 0.238 1.117 0.438l0.701 0.633 0.672-0.664c0.307-0.304 0.72-0.452 1.167-0.396 0.536 0.063 1.02 0.481 1.176 1.018 0.053 0.18 0.068 0.354 0.047 0.531l-0.117 1.116h1.126c1.437 0 2.639 1.123 2.738 2.557l0.045 0.657 0.621 0.218c1.563 0.549 2.591 2.028 2.556 3.683-0.015 0.707-0.243 1.388-0.656 1.985-0.669-0.568-1.39-0.951-1.996-1.27-0.157-0.083-0.309-0.163-0.462-0.248-0.043-0.024-0.095-0.066-0.113-0.171-0.024-0.144 0.03-0.317 0.139-0.444 0.436-0.506 0.611-1.196 0.47-1.847l-0.121-0.551c-0.245-1.121-1.416-1.878-2.537-1.627l-0.267 0.058c-3e-3 1e-3 -6e-3 0-8e-3 1e-3l-2.935 0.642-2.864 0.625c-1.148 0.251-1.878 1.389-1.626 2.538l0.06 0.272v3e-3c0 1e-3 1e-3 2e-3 1e-3 4e-3l0.059 0.271c0.145 0.666 0.608 1.227 1.237 1.497 0.156 0.067 0.286 0.194 0.331 0.323 0.026 0.074 0.011 0.112-0.047 0.208-0.1 0.133-0.206 0.269-0.315 0.407-0.111 0.141-0.226 0.29-0.342 0.443-0.036 0.047-0.07 0.096-0.106 0.144-0.086 0.116-0.171 0.236-0.257 0.36-0.043 0.063-0.085 0.128-0.128 0.193-0.077 0.119-0.152 0.241-0.225 0.368-0.041 0.071-0.081 0.141-0.121 0.214-0.076 0.141-0.145 0.29-0.212 0.441-0.028 0.063-0.058 0.123-0.084 0.188-0.088 0.219-0.166 0.447-0.229 0.687-9e-3 0.036-0.013 0.075-0.022 0.112-0.049 0.206-0.087 0.418-0.113 0.641-0.01 0.088-0.012 0.18-0.018 0.271-8e-3 0.118-0.023 0.231-0.023 0.354-0.029-0.038-0.057-0.07-0.086-0.107-0.066-0.086-0.132-0.164-0.198-0.246-0.148-0.183-0.297-0.357-0.446-0.52-0.073-0.08-0.147-0.159-0.22-0.234-0.157-0.16-0.316-0.307-0.474-0.445-0.059-0.051-0.117-0.108-0.176-0.156-0.211-0.172-0.424-0.324-0.639-0.457-0.065-0.04-0.131-0.07-0.196-0.107-0.155-0.087-0.311-0.167-0.468-0.234-0.086-0.037-0.173-0.069-0.26-0.099-0.143-0.051-0.286-0.092-0.43-0.126-0.087-0.021-0.174-0.044-0.261-0.059-0.182-0.031-0.365-0.047-0.549-0.052-0.042-1e-3 -0.084-0.012-0.126-0.012-1.039 0-1.985 0.405-2.824 0.952-0.092-0.226-0.14-0.469-0.14-0.72-1e-3 -0.584 0.259-1.133 0.712-1.505zm-6.425 8.303c0.423-0.797 1.45-1.405 3.233-1.915 0.834-0.238 1.608-0.683 2.236-1.283 0.279-0.267 0.543-0.498 0.798-0.705 0.227-0.185 0.446-0.347 0.657-0.486l0.024-0.015c0.418-0.272 0.806-0.453 1.169-0.546 0.015-4e-3 0.029-7e-3 0.044-0.01 0.178-0.042 0.351-0.066 0.518-0.066 1.258 0 2.607 1.255 4.01 3.73 0.735 1.297 0.98 3.212 0.661 4.882-0.075-7e-3 -0.148-0.017-0.222-0.029-0.359-0.069-0.707-0.184-1.019-0.371l-0.713-0.428c-0.803-0.481-1.722-0.736-2.658-0.736-0.253 0-0.504 0.022-0.752 0.059-0.693 0.089-1.369 0.315-1.973 0.678l-0.347 0.208c-0.593 0.355-1.276 0.534-1.961 0.54-0.685-6e-3 -1.369-0.184-1.961-0.54l-1.347-0.809c-0.175-0.104-0.366-0.177-0.564-0.214-0.159-0.794-0.103-1.434 0.167-1.944zm14.738 27.509h-11c-0.552 0-1-0.447-1-1s0.448-1 1-1h11c0.552 0 1 0.447 1 1s-0.448 1-1 1zm6 0h-2c-0.552 0-1-0.447-1-1s0.448-1 1-1h2c0.552 0 1 0.447 1 1s-0.448 1-1 1z"/>
</svg>
