<?xml version="1.0" encoding="UTF-8"?>
<!DOCTYPE svg  PUBLIC '-//W3C//DTD SVG 1.1//EN'  'http://www.w3.org/Graphics/SVG/1.1/DTD/svg11.dtd'>
<svg enable-background="new 0 0 31.029 31.028" version="1.1" viewBox="0 0 31.029 31.028" xml:space="preserve" xmlns="http://www.w3.org/2000/svg">
	<path d="m26.887 5.368v-0.022h-0.024c6e-3 8e-3 0.015 0.015 0.024 0.022z"/>
	<path d="m28.25 14.99c-4e-3 -1.016 1.277-4.795 1.277-4.795s-2.719 1.057-3.457 1.061c-0.736 1e-3 -1.892-1.456-1.896-2.515 0 0-3.529 4.479-4.268 4.158-0.738-0.317 1.303-9.077 1.303-9.077s-2.112 1.93-2.852 1.7c-0.736-0.227-2.828-5.458-2.828-5.458s-0.034-0.064-0.076-0.064c-0.044 0-0.076 0.066-0.076 0.066s-2.056 5.245-2.792 5.479c-0.736 0.229-2.86-1.682-2.86-1.682s2.104 8.744 1.367 9.067c-0.734 0.324-4.296-4.13-4.296-4.13 1e-3 1.059-1.145 2.527-1.88 2.528-0.736 3e-3 -3.458-1.035-3.458-1.035s1.306 3.774 1.307 4.786c4e-3 1.015-1.378 0.974-1.377 1.156 0 0.187 1.34 1.054 3.282 2.752 1.939 1.698 3.719 2.844 3.72 3.671 3e-3 0.646-0.706 2.352-0.706 2.352s6.029-1.033 6.535-1.129c0.507-0.094 0.967-0.094 0.972 0.965l-0.327 6.183h1.472l-0.438-6.187c-5e-3 -1.06 0.454-1.061 0.963-0.971 0.506 0.092 6.542 1.083 6.542 1.083s-0.72-1.7-0.723-2.347c-2e-3 -0.829 1.766-1.987 3.696-3.7 1.927-1.71 3.263-2.591 3.263-2.774-1e-3 -0.181-1.387-0.129-1.389-1.143zm-12.419 5.932l0.056 1.873h-0.75l0.057-1.904-7.963-4.563 7.99 3.688 0.291-11.783 0.291 11.754 8.084-4.099-8.056 5.034z"/>
</svg>
