<?xml version="1.0" encoding="UTF-8"?>
<svg enable-background="new 0 0 489.7 489.7" version="1.1" viewBox="0 0 489.7 489.7" xml:space="preserve" xmlns="http://www.w3.org/2000/svg">
		<path d="m403.5 154.5h-317.2c-3.1 19-17.9 34.2-36.5 37.7v105.3c18.7 3.5 33.4 18.7 36.5 37.7h317.6c3.1-19 17.9-34.2 36.5-37.7v-104.9c-18.7-3.5-33.4-18.6-36.9-38.1zm-158.6 151.2c-33.4 0-60.6-27.2-60.6-60.6s27.2-60.6 60.6-60.6 60.6 27.2 60.6 60.6-27.2 60.6-60.6 60.6z"/>
		<path d="m0 110.2v269.3h489.7v-269.3h-489.7zm455.9 194.7c0 4.3-3.5 7.8-7.8 7.8-16.3 0-29.5 13.6-29.5 30.7 0 4.3-3.5 7.8-7.8 7.8h-331.9c-4.3 0-7.8-3.5-7.8-7.8 0-16.7-13.2-30.7-29.5-30.7-4.3 0-7.8-3.5-7.8-7.8v-119.7c0-4.3 3.5-7.8 7.8-7.8 16.3 0 29.5-13.6 29.5-30.7 0-4.3 3.5-7.8 7.8-7.8h332c4.3 0 7.8 3.5 7.8 7.8 0 16.7 13.2 30.7 29.5 30.7 4.3 0 7.8 3.5 7.8 7.8l-0.1 119.7z"/>
		<path d="m266 259.8c0-11.3-9-20.5-20.3-20.8h-0.6c-4.9 0-8.9-4-8.9-8.9s4-8.9 8.9-8.9c2.5 0 4.8 1 6.5 2.8 2.3 2.4 6 2.5 8.4 0.3 2.4-2.3 2.5-6 0.3-8.4-2.5-2.7-5.7-4.6-9.2-5.7v-4.3c0-3.3-2.7-6-6-6s-6 2.7-6 6v4.1c-8.6 2.6-14.9 10.6-14.9 20 0 11.3 9 20.5 20.3 20.8h0.6c4.9 0 8.9 4 8.9 8.9s-4 8.9-8.9 8.9c-2.5 0-4.8-1-6.5-2.8-2.3-2.4-6-2.5-8.4-0.3-2.4 2.3-2.5 6-0.3 8.4 2.5 2.7 5.7 4.6 9.2 5.7v4.2c0 3.3 2.7 6 6 6s6-2.7 6-6v-4.1c8.6-2.5 14.9-10.5 14.9-19.9z"/>
</svg>
