<?xml version="1.0" encoding="UTF-8"?>
<svg viewBox="0 0 512 512" xmlns="http://www.w3.org/2000/svg">
<path d="m346.84 432.33c11.754 11.754 27.191 17.629 42.633 17.629 15.438 0 30.879-5.875 42.633-17.629 23.508-23.508 23.508-61.758 0-85.27-7.9062-7.9062-17.484-13.141-27.605-15.727v-116.05h-30.055v116.05c-10.121 2.5859-19.699 7.8203-27.605 15.727-23.508 23.512-23.508 61.762 0 85.27z"/>
<path d="m479.63 307.14v-218.11c0-41.918-28.754-76.281-67.578-86.027-7.3594-1.9531-15.09-3-23.059-3-18.918 0-36.488 5.875-50.988 15.891-16.488 11.188-28.973 27.68-34.891 47.258-1.1758 3.7461-2.1016 7.6016-2.7812 11.543l-38.996 10.145-45.719-45.023-45.719 45.023-62.133-16.168-17.012 61.902-61.898 17.008 16.164 62.137-45.023 45.719 45.023 45.719-16.168 62.133 61.902 17.012 17.012 61.898 62.133-16.164 45.719 45.023 45.719-45.023 12.094 3.1445c15.875 46.66 59.273 80.699 110.75 82.707 0.21484 0.007813 0.42578 0.015626 0.64062 0.023438 1.1562 0.039062 2.3164 0.066406 3.4805 0.070312 0.39062 0.003907 0.77344 0.027344 1.1641 0.027344 67.438 0 122.3-54.867 122.3-122.3 0-30.867-11.367-59.938-32.141-82.559zm-150.61-66.195c0.125 0.94531 0.23828 1.8945 0.33984 2.8438v-0.25391h22.223v-30.055h-22.223v-30.055h22.223v-30.055h-22.223v-30.059h22.223v-30.055h-22.223v-4.2305c0-9.1836 2.0781-17.781 5.7734-25.422 0.33594-0.68359 0.67969-1.3594 1.043-2.0273 0.039062-0.074219 0.074218-0.14453 0.11328-0.21875 2.1836-4.0117 4.8242-7.7383 7.832-11.129 0.24219-0.27344 0.47656-0.55078 0.72656-0.81641 0.15625-0.16797 0.31641-0.33203 0.47266-0.49609 10.988-11.543 26.711-18.637 44.148-18.637 6.2109 0 12.203 0.89844 17.84 2.5781 24.137 7.7617 41.656 30.418 41.656 57.102v229.97l4.4844 4.4062c17.789 17.473 27.582 40.781 27.582 65.621 0 47.453-36.102 86.633-82.281 91.523-3.0547 0.30469-6.1484 0.46484-9.2812 0.46484-50.867 0-92.25-41.383-92.25-92.25 0-21 6.9844-40.902 19.871-57.129 2.2969-2.8672 4.7812-5.6172 7.4453-8.2344l4.4844-4.4062v-0.078125l0.33984-0.33594v-15.863h22.223v-30.055h-22.223v-5.4023c-0.10156 0.95312-0.21484 1.9023-0.33984 2.8477zm-112.49 128.54c-62.574 0-113.48-50.91-113.48-113.49 0-62.578 50.91-113.49 113.48-113.49 32.473 0 61.797 13.711 82.504 35.645v64.945c-6.2188-39.938-40.844-70.602-82.504-70.602-46.039 0-83.5 37.457-83.5 83.5 0 46.043 37.461 83.504 83.5 83.504 41.66 0 76.285-30.664 82.504-70.605v38.691c-12.625 13.746-21.758 29.883-26.977 47.355-16.426 9.2539-35.367 14.543-55.527 14.543z"/>
</svg>
