<?xml version="1.0" encoding="UTF-8"?>
<svg width="512pt" height="512pt" viewBox="0 -2 512 512" xmlns="http://www.w3.org/2000/svg">
<path d="m141.59 58.703c-38.574-5.8242-64.793-14.387-70.004-24.188 21.574 83.793 38.93 168.61 51.996 254.14 16.066 3.0898 33.059 26.723 51.863 28.586l80.551 7.6094 87.172-13.719c18.805-1.8516 29.176-19.422 45.242-22.512 13.066-85.52 30.422-170.33 51.996-254.11-5.2109 9.8008-31.43 18.363-70.004 24.188z" fill="#cc4b4c"/>
<path d="m256 66.207h-26.484v237.73c-17.652-0.53125-35.66-6.0898-52.965-7.8555h-0.085937c-1.4336-80.289-13.152-160.07-34.871-237.38 37.91 5.2227 76.141 7.7305 114.41 7.5039z" fill="#fff"/>
<path d="m370.41 58.703c-21.719 77.309-33.438 157.09-34.871 237.38h-0.085937c-17.305 1.7656-35.312 7.3242-52.965 7.8555v-237.73h-26.484c38.266 0.22656 76.496-2.2812 114.41-7.5039z" fill="#fff"/>
<path d="m383.38 329.54c76.887 10.414 128.62 32.75 128.62 72.121 0 58.527-114.58 105.93-256 105.93s-256-47.402-256-105.93c0-39.371 51.73-61.707 128.62-72.121" fill="#e64c3c"/>
<path d="m388.41 288.66c-1.9414 13.949-3.707 27.633-5.0312 40.875-2.207 21.008-3.6211 40.957-3.707 58.969-40.609 8.957-82.09 13.367-123.68 13.152-41.586 0.21484-83.066-4.1953-123.68-13.152-0.085938-18.012-1.5-37.961-3.707-58.969-1.3242-13.242-3.0898-26.926-5.0312-40.875 16.066 3.0898 34.074 5.5625 52.879 7.418 0.085937 2.8242 0.085937 5.6484 0.085937 8.4727v-8.4727c17.305 1.7656 35.312 2.9141 52.965 3.4414 9.0039 0.35547 17.832 0.53125 26.484 0.53125s17.48-0.17578 26.484-0.53125c17.652-0.52734 35.66-1.6758 52.965-3.4414v8.4727c0-2.8242 0-5.6484 0.085937-8.4727 18.805-1.8555 36.812-4.3281 52.879-7.418z" fill="#285680"/>
<g fill="#fff">
<path d="m180.96 322.21 6.8242 14.531 15.246 2.3281-11.035 11.309 2.6055 15.969-13.641-7.5391-13.637 7.5391 2.6016-15.969-11.031-11.309 15.242-2.3281z"/>
<path d="m331.04 322.21 6.8242 14.531 15.242 2.3281-11.031 11.309 2.6016 15.969-13.637-7.5391-13.641 7.5391 2.6055-15.969-11.035-11.309 15.246-2.3281z"/>
<path d="m256 322.21 8.1836 17.434 18.301 2.8008-13.242 13.566 3.125 19.164-16.367-9.0469-16.367 9.0469 3.125-19.164-13.242-13.566 18.301-2.8008z"/>
</g>
<path d="m441.38 35.309c-0.007812 0.17969-0.039062 0.35938-0.085937 0.53125-0.003907 1.0625-0.3125 2.1055-0.88281 3v0.089844c-5.2109 9.7969-31.43 18.363-70.004 24.188-37.91 5.2227-76.141 7.7305-114.41 7.5039-38.266 0.22656-76.496-2.2812-114.41-7.5039-38.574-5.8242-64.793-14.391-70.004-24.188v-0.089844c-0.57031-0.89453-0.87891-1.9375-0.88281-3-0.046875-0.17188-0.078125-0.35156-0.085937-0.53125 0-19.508 82.98-35.309 185.38-35.309s185.38 15.801 185.38 35.309z" fill="#e64c3c"/>
</svg>
