<?xml version="1.0" encoding="UTF-8"?>
<svg enable-background="new 0 0 44.76 44.76" version="1.1" viewBox="0 0 44.76 44.76" xml:space="preserve" xmlns="http://www.w3.org/2000/svg">
		<path d="m33.635 21.227c6.086 0 11.02-2.328 11.02-5.202-2e-3 -2.875-4.934-5.202-11.02-5.202-6.08 0-11.014 2.327-11.014 5.202 0 2.874 4.934 5.202 11.014 5.202zm0-7.634c2.848 0 5.15 1.088 5.15 2.432s-2.307 2.432-5.15 2.432c-2.841 0-5.145-1.088-5.145-2.432s2.304-2.432 5.145-2.432zm-33.635 2.432h21.108v12.376h-1.49v-2.762h-0.554v2.762h-2.114v-3.979h-0.553v3.979h-1.943v-2.762h-0.555v2.762h-2.633v-3.979h-0.555v3.979h-2.6v-2.762h-0.554v2.762h-2.288v-3.979h-0.555v3.979h-2.635v-2.143h-0.556v2.143h-1.523v-12.376zm44.76 3.195v11.138l-2.14 1.537v-5.088l-0.749 0.535v4.971c-0.652 0.312-1.903 0.697-1.903 0.697v-3.57l-0.749 0.375v3.465c-0.646 0.171-1.365 0.309-2.135 0.421v-5.085l-0.749 0.188v5.002c-0.743 0.078-1.528 0.131-2.38 0.131-0.066 0-0.135-6e-3 -0.2-6e-3v-3.509l-0.751 0.011v3.475c-0.902-0.032-1.744-0.116-2.525-0.241v-4.965l-0.754-0.188v5.025c-0.722-0.145-1.393-0.313-2.009-0.495v-3.5l-0.749-0.377v3.573s-1.264-0.426-1.979-0.784v-4.972l-0.748-0.532v5.088l-1.724-1.181v-11.138s4.333 3.581 10.979 3.581 11.265-3.582 11.265-3.582zm-17.044 13.824v0.01c0-2e-3 -0.042-0.026 0-0.01zm14.155-0.7v-0.031c0.093-0.047 0 0.031 0 0.031z"/>
</svg>
