<?xml version="1.0" encoding="UTF-8"?>
<!DOCTYPE svg  PUBLIC '-//W3C//DTD SVG 1.1//EN'  'http://www.w3.org/Graphics/SVG/1.1/DTD/svg11.dtd'>
<svg enable-background="new 0 0 16.833 16.833" version="1.1" viewBox="0 0 16.833 16.833" xml:space="preserve" xmlns="http://www.w3.org/2000/svg">
	<path d="m10.179 5.098c-0.32-0.509-0.687-1.062-1.155-1.743-0.251-0.363-0.505-0.726-0.759-1.087l-0.205-0.291c-0.213-0.305-0.426-0.61-0.631-0.906-0.14-0.227-0.278-0.382-0.419-0.473-0.096-0.061-0.194-0.092-0.292-0.092h-0.019c-0.105 6e-3 -0.207 0.045-0.302 0.12-0.124 0.096-0.235 0.247-0.335 0.446-0.13 0.204-0.261 0.413-0.394 0.621l-0.148 0.23-0.124 0.195c-0.228 0.356-0.454 0.711-0.677 1.067-0.428 0.676-0.761 1.222-1.052 1.717-0.592 1.014-1.047 1.897-1.388 2.702-0.76 1.792-1.012 3.326-0.766 4.693 0.165 0.924 0.565 1.797 1.193 2.59l6e-3 0.01 9e-3 7e-3c0.517 0.499 1.076 0.913 1.663 1.231 0.856 0.463 1.723 0.698 2.574 0.698 0.42 0 0.838-0.06 1.239-0.177 0.307-0.092 0.609-0.219 0.891-0.377 0.31-0.174 0.604-0.389 0.872-0.637 0.901-0.77 1.53-1.608 1.919-2.566 0.103-0.257 0.18-0.531 0.242-0.864 0.042-0.231 0.069-0.47 0.081-0.692 0.142-1.127-0.047-2.32-0.572-3.644-0.331-0.832-0.806-1.74-1.451-2.778zm-4.067 10.682c-2.456-0.373-4.144-2.667-3.769-5.121 0.063-0.417 0.262-1.568 0.349-1.175 1.177 5.271 5.784 6.02 5.784 6.02-0.725 0.292-1.536 0.402-2.364 0.276zm9.284-11.649c-4e-3 0.079-0.013 0.169-0.029 0.258-0.021 0.128-0.049 0.233-0.085 0.332-0.135 0.364-0.352 0.683-0.666 0.976-0.094 0.095-0.198 0.178-0.309 0.247-0.102 0.062-0.211 0.111-0.323 0.147-0.144 0.046-0.296 0.07-0.449 0.07-0.306 0-0.612-0.09-0.918-0.27-0.204-0.122-0.399-0.281-0.577-0.469l-8e-3 -7e-3 -6e-3 -0.01c-0.218-0.301-0.356-0.633-0.415-0.986-0.086-0.515 0-1.091 0.261-1.762 0.115-0.296 0.269-0.622 0.469-0.997 0.097-0.182 0.206-0.375 0.352-0.63 0.075-0.13 0.151-0.26 0.229-0.39l0.09-0.154 0.026-0.046 0.104-0.181c0.036-0.078 0.081-0.145 0.134-0.19 0.051-0.042 0.109-0.067 0.169-0.07h2e-3c0.07 0 0.124 0.017 0.176 0.054 0.062 0.041 0.116 0.111 0.172 0.207 0.056 0.088 0.116 0.185 0.179 0.28l0.029 0.047 0.092 0.145c0.077 0.118 0.153 0.238 0.229 0.359 0.159 0.25 0.281 0.453 0.389 0.64 0.219 0.382 0.379 0.718 0.49 1.027 0.177 0.499 0.24 0.946 0.193 1.373z"/>
</svg>
